<svg fill="none" height="780" viewBox="0 0 780 780" width="780" xmlns="http://www.w3.org/2000/svg" xmlns:xlink="http://www.w3.org/1999/xlink"><filter id="a" color-interpolation-filters="sRGB" filterUnits="userSpaceOnUse" height="287" width="413" x="241" y="130"><feFlood flood-opacity="0" result="BackgroundImageFix"/><feColorMatrix in="SourceAlpha" result="hardAlpha" type="matrix" values="0 0 0 0 0 0 0 0 0 0 0 0 0 0 0 0 0 0 127 0"/><feOffset dy="4"/><feGaussianBlur stdDeviation="2"/><feComposite in2="hardAlpha" operator="out"/><feColorMatrix type="matrix" values="0 0 0 0 0 0 0 0 0 0 0 0 0 0 0 0 0 0 0.25 0"/><feBlend in2="BackgroundImageFix" mode="normal" result="effect1_dropShadow_2_2"/><feBlend in="SourceGraphic" in2="effect1_dropShadow_2_2" mode="normal" result="shape"/></filter><path d="m0 0h780v780h-780z" fill="#070000"/><g filter="url(#a)"><path clip-rule="evenodd" d="m466.5 409 183.5-279h-405zm-50.662-64.972 97.622-148.428h-215.46z" fill="#fff" fill-rule="evenodd"/></g><g fill="#fff"><path clip-rule="evenodd" d="m313.5 371-183.5 279h405zm50.662 64.972-97.622 148.428h215.46z" fill-rule="evenodd"/><path d="m239 186c0 30.928-24.4 56-54.5 56s-54.5-25.072-54.5-56 24.4-56 54.5-56 54.5 25.072 54.5 56z"/><path d="m650 594c0 30.928-24.401 56-54.5 56s-54.5-25.072-54.5-56 24.401-56 54.5-56 54.5 25.072 54.5 56z"/></g></svg>